<svg width="24" height="24" viewBox="0 0 24 24" fill="none" xmlns="http://www.w3.org/2000/svg">
<ellipse cx="10" cy="17.5" rx="7" ry="3.5" stroke="#16151C" stroke-width="1.5" stroke-linejoin="round"/>
<circle cx="10" cy="7" r="4" stroke="#16151C" stroke-width="1.5" stroke-linejoin="round"/>
<path fill-rule="evenodd" clip-rule="evenodd" d="M15.0443 10.2496C14.7223 10.7485 14.3283 11.1965 13.877 11.5791C14.2314 11.6901 14.6085 11.75 14.9996 11.75C17.0707 11.75 18.7496 10.0711 18.7496 7.99999C18.7496 6.04422 17.2524 4.43814 15.3416 4.26538C15.6078 4.78435 15.8006 5.34717 15.9063 5.94015C16.6974 6.28887 17.2496 7.07994 17.2496 7.99999C17.2496 9.2277 16.2663 10.2257 15.0443 10.2496Z" fill="#16151C"/>
<path fill-rule="evenodd" clip-rule="evenodd" d="M19.0002 17.5563C18.9901 18.1705 18.8152 18.7606 18.5014 19.3108C18.8698 19.2095 19.2149 19.092 19.5317 18.96C20.1289 18.7112 20.6611 18.3959 21.0554 18.0074C21.4525 17.6162 21.7506 17.1064 21.7506 16.5C21.7506 15.8935 21.4525 15.3837 21.0554 14.9925C20.6611 14.604 20.1289 14.2887 19.5317 14.0399C18.5091 13.6138 17.1912 13.3394 15.75 13.2683C16.7522 13.7774 17.5707 14.4169 18.1356 15.1443C18.4334 15.2274 18.7077 15.3215 18.9548 15.4245C19.4434 15.6281 19.7899 15.8514 20.0028 16.0611C20.213 16.2682 20.2506 16.416 20.2506 16.5C20.2506 16.5839 20.213 16.7317 20.0028 16.9388C19.7966 17.1419 19.4649 17.3579 19.0002 17.5563Z" fill="#16151C"/>
</svg>
